HIERARCHY
ROOT root
{
	OFFSET	0.000000	0.000000	0.000000
	CHANNELS 6 Xposition Yposition Zposition Zrotation Yrotation Xrotation
	JOINT lhipjoint
	{
		OFFSET	0.000000	0.000000	0.000000
		CHANNELS 3 Zrotation Yrotation Xrotation
		JOINT lfemur
		{
			OFFSET	1.656736	-1.802822	0.624766
			CHANNELS 3 Zrotation Yrotation Xrotation
			JOINT ltibia
			{
				OFFSET	2.597200	-7.135754	0.000000
				CHANNELS 3 Zrotation Yrotation Xrotation
				JOINT lfoot
				{
					OFFSET	2.492357	-6.847701	0.000000
					CHANNELS 3 Zrotation Yrotation Xrotation
					JOINT ltoes
					{
						OFFSET	0.197038	-0.541357	2.145811
						CHANNELS 3 Zrotation Yrotation Xrotation
						End Site
						{
							OFFSET	0.000000	-0.000000	1.112490
						}
					}
				}
			}
		}
	}
	JOINT rhipjoint
	{
		OFFSET	0.000000	0.000000	0.000000
		CHANNELS 3 Zrotation Yrotation Xrotation
		JOINT rfemur
		{
			OFFSET	-1.610701	-1.802823	0.624765
			CHANNELS 3 Zrotation Yrotation Xrotation
			JOINT rtibia
			{
				OFFSET	-2.595021	-7.129768	0.000000
				CHANNELS 3 Zrotation Yrotation Xrotation
				JOINT rfoot
				{
					OFFSET	-2.467804	-6.780241	0.000000
					CHANNELS 3 Zrotation Yrotation Xrotation
					JOINT rtoes
					{
						OFFSET	-0.230239	-0.632577	2.133676
						CHANNELS 3 Zrotation Yrotation Xrotation
						End Site
						{
							OFFSET	-0.000000	-0.000000	1.115690
						}
					}
				}
			}
		}
	}
	JOINT lowerback
	{
		OFFSET	0.000000	0.000000	0.000000
		CHANNELS 3 Zrotation Yrotation Xrotation
		JOINT upperback
		{
			OFFSET	0.019612	2.054496	-0.141116
			CHANNELS 3 Zrotation Yrotation Xrotation
			JOINT thorax
			{
				OFFSET	0.010210	2.064356	-0.059210
				CHANNELS 3 Zrotation Yrotation Xrotation
				JOINT lowerneck
				{
					OFFSET	0.001509	2.068054	0.008037
					CHANNELS 3 Zrotation Yrotation Xrotation
					JOINT upperneck
					{
						OFFSET	0.007130	1.567112	0.149683
						CHANNELS 3 Zrotation Yrotation Xrotation
						JOINT head
						{
							OFFSET	0.034286	1.560409	-0.100058
							CHANNELS 3 Zrotation Yrotation Xrotation
							End Site
							{
								OFFSET	0.013051	1.625595	-0.052648
							}
						}
					}
				}
				JOINT lclavicle
				{
					OFFSET	0.001509	2.068054	0.008037
					CHANNELS 3 Zrotation Yrotation Xrotation
					JOINT lhumerus
					{
						OFFSET	3.542050	0.904362	-0.173638
						CHANNELS 3 Zrotation Yrotation Xrotation
						JOINT lradius
						{
							OFFSET	4.865130	-0.000000	-0.000000
							CHANNELS 3 Zrotation Yrotation Xrotation
							JOINT lwrist
							{
								OFFSET	3.355540	-0.000000	0.000000
								CHANNELS 3 Zrotation Yrotation Xrotation
								JOINT lhand
								{
									OFFSET	1.677770	-0.000000	0.000000
									CHANNELS 3 Zrotation Yrotation Xrotation
									JOINT lfingers
									{
										OFFSET	0.661175	-0.000000	0.000000
										CHANNELS 3 Zrotation Yrotation Xrotation
										End Site
										{
											OFFSET	0.533057	-0.000000	0.000000
										}
									}
								}
								JOINT lthumb
								{
									OFFSET	1.677770	-0.000000	0.000000
									CHANNELS 3 Zrotation Yrotation Xrotation
									End Site
									{
										OFFSET	0.541196	-0.000000	0.541196
									}
								}
							}
						}
					}
				}
				JOINT rclavicle
				{
					OFFSET	0.001509	2.068054	0.008037
					CHANNELS 3 Zrotation Yrotation Xrotation
					JOINT rhumerus
					{
						OFFSET	-3.498016	0.759940	-0.326156
						CHANNELS 3 Zrotation Yrotation Xrotation
						JOINT rradius
						{
							OFFSET	-5.026490	-0.000000	0.000000
							CHANNELS 3 Zrotation Yrotation Xrotation
							JOINT rwrist
							{
								OFFSET	-3.364310	-0.000000	0.000000
								CHANNELS 3 Zrotation Yrotation Xrotation
								JOINT rhand
								{
									OFFSET	-1.682160	-0.000000	0.000000
									CHANNELS 3 Zrotation Yrotation Xrotation
									JOINT rfingers
									{
										OFFSET	-0.730406	-0.000000	0.000000
										CHANNELS 3 Zrotation Yrotation Xrotation
										End Site
										{
											OFFSET	-0.588872	-0.000000	0.000000
										}
									}
								}
								JOINT rthumb
								{
									OFFSET	-1.682160	-0.000000	0.000000
									CHANNELS 3 Zrotation Yrotation Xrotation
									End Site
									{
										OFFSET	-0.597863	-0.000000	0.597863
									}
								}
							}
						}
					}
				}
			}
		}
	}
}
MOTION
Frames:	12
Frame Time:	0.008333
	10.419400	16.704800	-30.100300	-3.009140	-9.821942	-2.489721	0.000000	0.000000	0.000000	-18.044645	-10.217453	-26.249847	1.401255	7.488145	21.169853	0.233003	8.582754	-15.932436	0.292864	-3.479988	-9.618073	0.000000	0.000000	0.000000	29.129303	-3.610995	15.899091	-0.372488	-3.920055	10.851863	-0.682490	6.272712	-14.743128	-0.052665	-1.480928	4.073151	6.357100	1.572720	7.865730	1.656840	2.552260	3.472550	-2.055270	1.319440	-0.599593	1.034380	4.067060	-12.490099	-6.407330	5.612459	1.617840	-1.927520	2.547410	2.972260	-0.000000	-0.000000	0.000000	-97.126312	11.993740	-11.075607	10.524071	-17.555103	-1.629463	0.000000	-0.000002	-12.630991	23.558270	21.117485	8.927681	-7.125019	0.000000	0.000000	-5.275528	52.751171	-1.008494	-0.000000	-0.000000	0.000000	79.205612	20.433905	39.631321	-27.558418	38.706524	-9.846321	-0.000000	0.000002	-16.779799	-27.168400	16.644682	-8.363051	7.125019	0.000000	0.000000	0.433464	-11.405853	0.339198
	10.411700	16.684000	-29.916800	-2.832430	-10.008199	-2.697290	0.000000	0.000000	0.000000	-18.489531	-10.063349	-25.988512	1.406467	7.501475	21.209810	0.247996	8.691064	-16.251873	0.200339	-2.882142	-7.950799	0.000000	0.000000	0.000000	28.790012	-3.851476	16.904333	-0.353898	-3.822027	10.576499	-0.655913	6.198223	-14.453809	-0.012526	-0.722674	1.986034	6.093310	1.653740	7.445961	1.671710	2.585530	3.912539	-1.869120	1.359920	0.078456	1.036550	4.150801	-13.040303	-6.437961	5.716949	1.419540	-1.923530	2.592060	3.013160	-0.000000	-0.000000	0.000000	-97.336395	11.314460	-11.303350	10.482713	-17.491070	-1.617016	-0.000000	0.000002	-12.381101	23.597805	21.286190	9.011261	-7.125019	0.000000	0.000000	-5.286725	52.936535	-1.034643	-0.000000	-0.000000	0.000000	79.149521	21.130121	39.332825	-27.399704	38.557701	-9.747232	-0.000000	0.000002	-16.503698	-26.504530	16.327269	-7.980333	7.125019	0.000000	0.000000	0.842380	-11.855886	0.651410
	10.403700	16.674900	-29.731899	-2.679050	-10.110401	-2.736840	0.000000	0.000000	0.000000	-18.918716	-9.896910	-25.937717	1.437511	7.580297	21.446365	0.237416	8.717962	-16.140501	0.232847	-3.105722	-8.573221	0.000000	0.000000	0.000000	28.442568	-4.048821	17.373102	-0.377702	-3.947092	10.927866	-0.647703	6.465684	-14.383186	-0.002385	-0.315382	0.866551	5.931591	1.749240	7.315189	1.615410	2.689060	3.968450	-1.837340	1.414490	0.211031	1.069490	4.141881	-13.118799	-6.252191	5.669829	1.081860	-1.869600	2.582000	2.902150	-0.000000	0.000000	0.000000	-97.321037	11.066607	-11.609576	10.330270	-17.254530	-1.571498	0.000000	0.000000	-11.613399	23.437981	20.740084	8.728146	-7.125019	0.000000	0.000000	-5.284568	52.330853	-0.955780	-0.000000	0.000000	0.000000	79.177818	21.287161	39.108555	-27.094141	38.268822	-9.557378	0.000000	-0.000002	-16.226194	-26.653214	16.452806	-8.090838	7.125019	0.000000	0.000000	0.755577	-11.695885	0.586766
	10.395100	16.669600	-29.540001	-2.430140	-10.191400	-2.652900	0.000000	0.000000	0.000000	-19.497667	-9.509109	-26.102743	1.506945	7.753160	21.966820	0.215291	8.493361	-15.590612	0.347765	-3.789109	-10.484095	0.000000	0.000000	0.000000	28.005177	-4.158452	17.868618	-0.386887	-3.994263	11.060530	-0.612156	6.540123	-14.001360	-0.000440	-0.135632	0.372648	5.743650	1.823680	7.193631	1.449700	2.774150	3.818879	-1.908020	1.451500	0.127573	1.318820	4.129910	-12.917800	-6.090660	5.585189	0.706102	-1.869430	2.558940	2.734370	0.000000	0.000000	0.000000	-97.168625	11.065660	-11.789072	10.212742	-17.071657	-1.536812	0.000000	0.000000	-11.113698	23.414505	20.074257	8.454288	-7.125019	0.000000	0.000000	-5.115916	51.623222	-0.836313	0.000000	0.000000	0.000000	79.402267	21.128040	39.103607	-26.805321	37.992908	-9.379043	0.000000	0.000000	-16.082701	-27.044231	16.653671	-8.323415	7.125019	0.000000	0.000000	0.516383	-11.415380	0.403980
	10.384100	16.648800	-29.344700	-2.468940	-10.352600	-2.507650	0.000000	0.000000	0.000000	-19.677103	-9.294941	-26.188644	1.622785	8.031702	22.810413	0.209634	8.183632	-15.168274	0.395947	-4.040205	-11.189809	0.000000	0.000000	0.000000	27.872229	-4.294526	18.149014	-0.420898	-4.164038	11.538621	-0.573713	6.700824	-13.588955	-0.001003	0.204418	-0.561644	5.718980	1.857110	6.930840	1.407010	2.803360	3.706011	-1.932280	1.465180	0.158931	1.546000	4.173780	-12.709501	-5.989799	5.587389	0.388960	-1.879710	2.574360	2.591530	-0.000000	-0.000000	0.000000	-97.138275	11.070411	-11.717747	10.206008	-17.061178	-1.534838	0.000000	0.000000	-11.374692	23.342281	20.013485	8.401392	-7.125019	0.000000	0.000000	-5.171235	51.546341	-0.835625	-0.000000	-0.000000	0.000000	79.659805	20.955168	39.337193	-26.587612	37.783081	-9.245343	0.000000	-0.000002	-16.002499	-27.229454	16.498547	-8.314138	7.125019	0.000000	0.000000	0.378552	-11.557153	0.295047
	10.373600	16.615299	-29.148701	-2.741920	-10.456701	-2.278330	0.000000	0.000000	0.000000	-19.535410	-9.413441	-26.212109	1.769044	8.367473	23.835901	0.203777	7.978971	-14.858573	0.313811	-3.601188	-9.957282	0.000000	0.000000	0.000000	27.998426	-4.451844	18.357418	-0.462438	-4.362020	12.097445	-0.561526	6.928004	-13.478792	-0.019921	0.911211	-2.504545	5.832741	1.898750	6.393930	1.523520	2.826250	3.708179	-1.854370	1.484920	0.460678	1.463860	4.164350	-12.636300	-5.765110	5.561870	0.109727	-1.793650	2.575220	2.468920	-0.000000	-0.000000	0.000000	-97.261871	10.913472	-11.710929	10.178497	-17.018303	-1.526778	-0.000000	0.000002	-11.408389	23.237677	20.306948	8.475608	-7.125019	0.000000	0.000000	-5.359848	51.837753	-0.904615	-0.000000	-0.000000	0.000000	79.734543	20.906988	39.397999	-26.330084	37.532810	-9.088007	-0.000000	0.000002	-16.020794	-27.379183	16.335928	-8.287768	7.125019	0.000000	0.000000	0.263228	-11.713059	0.204318
	10.359900	16.571501	-28.953400	-2.592340	-10.361899	-2.259900	0.000000	0.000000	0.000000	-19.894321	-9.502360	-26.229275	1.938126	8.735989	24.972891	0.129248	8.217713	-14.000669	0.295510	-3.495531	-9.661545	0.000000	0.000000	0.000000	27.777077	-4.573607	18.890894	-0.491288	-4.494125	12.471131	-0.581757	6.903677	-13.702648	-0.092345	1.959863	-5.394750	5.455349	1.877720	6.057799	1.555720	2.755050	3.722400	-1.594330	1.447760	0.634688	1.236410	4.159890	-12.577698	-5.383019	5.554950	-0.237379	-1.629480	2.590660	2.315280	-0.000000	0.000000	0.000000	-97.431351	10.791221	-11.829108	10.196433	-17.046265	-1.532027	0.000000	-0.000002	-11.148799	22.987329	20.398376	8.410693	-7.125019	0.000000	0.000000	-5.637964	51.889565	-0.958961	-0.000000	0.000000	0.000000	79.726273	20.856306	39.446068	-26.005098	37.213753	-8.890733	0.000000	0.000000	-16.269693	-27.271360	16.296890	-8.231217	7.125019	0.000000	0.000000	0.330870	-11.772823	0.256413
	10.345800	16.564301	-28.754200	-2.442920	-10.271300	-2.360020	0.000000	0.000000	0.000000	-20.193844	-9.628081	-26.183800	2.136312	9.144419	26.248133	0.007374	9.177073	-13.208047	0.350482	-3.803736	-10.525151	0.000000	0.000000	0.000000	27.558540	-4.679518	19.292397	-0.547190	-4.739010	13.165649	-0.572461	6.740733	-13.579377	-0.226756	3.065093	-8.460028	4.978850	1.793420	5.944460	1.657820	2.612420	3.736929	-1.213660	1.368670	0.673863	0.871191	4.238430	-12.663900	-4.988161	5.683220	-0.503805	-1.427770	2.669580	2.214730	0.000000	0.000000	0.000000	-97.697945	10.669535	-11.856196	10.223899	-17.089046	-1.540093	0.000000	0.000000	-11.134993	22.939302	20.556549	8.452731	-7.125019	0.000000	0.000000	-5.733261	52.047512	-0.997485	0.000000	0.000000	0.000000	79.647636	20.817297	39.763237	-25.581116	36.792057	-8.635554	-0.000000	0.000002	-16.542498	-27.044298	16.287575	-8.147896	7.125019	0.000000	0.000000	0.480480	-11.817829	0.371914
	10.334300	16.575300	-28.550301	-2.540860	-10.258099	-2.285920	0.000000	0.000000	0.000000	-20.117294	-9.932304	-26.243652	2.353571	9.566669	27.584558	-0.100464	10.382837	-13.075073	0.324082	-3.659082	-10.119462	0.000000	0.000000	0.000000	27.513666	-4.794022	19.510561	-0.602030	-4.966796	13.813884	-0.504180	6.602891	-12.772561	-0.391124	4.015811	-11.121157	5.111061	1.733460	5.871951	1.520840	2.542040	3.564280	-1.426250	1.332020	0.544173	0.757051	4.286690	-12.838900	-4.303489	5.736199	-0.501307	-1.179160	2.715480	2.216310	-0.000000	-0.000000	0.000000	-97.382927	10.690138	-11.475048	10.170736	-17.006195	-1.524506	0.000000	-0.000002	-11.395798	23.326279	20.934206	8.758696	-7.125019	0.000000	0.000000	-5.455751	52.515171	-1.011558	-0.000000	-0.000000	0.000000	80.256920	20.454010	39.877251	-25.044891	36.249836	-8.316440	0.000000	-0.000002	-16.274393	-27.020853	16.699518	-8.337088	7.125019	0.000000	0.000000	0.536336	-11.368629	0.420111
	10.323000	16.536600	-28.352301	-2.467930	-10.209801	-2.234040	0.000000	0.000000	0.000000	-20.174919	-10.332372	-26.368301	2.564278	9.953850	28.827415	-0.177580	11.232347	-13.058009	0.182035	-2.748074	-7.578146	0.000000	0.000000	0.000000	27.320679	-4.899039	19.764666	-0.680384	-5.274020	14.691787	-0.468581	6.510080	-12.330274	-0.636392	5.103981	-14.205370	4.994639	1.739300	5.654220	1.410830	2.535580	3.450350	-1.469000	1.326790	0.546233	0.659075	4.244220	-12.567002	-3.825410	5.659240	-0.942763	-1.021240	2.701840	1.994070	-0.000000	-0.000000	0.000000	-97.163269	10.554868	-11.282153	10.059298	-16.832272	-1.492072	0.000000	0.000000	-11.206193	23.620359	21.087336	8.941667	-7.125019	0.000000	0.000000	-5.203187	52.730831	-0.992005	-0.000000	-0.000000	0.000000	80.725342	20.010401	39.753387	-24.570566	35.761822	-8.037591	0.000000	0.000000	-15.952298	-27.124979	17.058229	-8.546048	7.125019	0.000000	0.000000	0.503683	-10.958118	0.398771
	10.311300	16.499701	-28.161200	-2.384250	-10.152200	-2.388970	0.000000	0.000000	0.000000	-20.304468	-10.384241	-26.379192	2.782242	10.333914	30.064949	-0.189232	11.272629	-12.903724	0.030466	-1.126740	-3.097600	0.000000	0.000000	0.000000	27.108568	-5.253737	20.077837	-0.808052	-5.736730	16.022430	-0.467237	6.292358	-12.284739	-1.114248	6.705998	-18.847225	4.859840	1.741040	5.692510	1.324980	2.534590	3.443600	-1.483820	1.324550	0.515306	0.693845	4.200349	-12.418798	-3.714500	5.576061	-1.415420	-1.003250	2.671410	1.804740	0.000000	0.000000	0.000000	-96.973137	10.209932	-11.706717	9.863242	-16.525375	-1.435803	0.000000	0.000000	-10.184298	23.349970	20.751572	8.696525	-7.125019	0.000000	0.000000	-5.376998	52.326908	-0.972064	0.000000	0.000000	0.000000	81.111618	19.630404	39.595581	-24.099779	35.269592	-7.764096	-0.000000	0.000002	-15.703792	-27.290657	17.036268	-8.595535	7.125019	0.000000	0.000000	0.392451	-10.955844	0.310714
	10.296000	16.522499	-27.972300	-2.620420	-10.063700	-2.456780	0.000000	0.000000	0.000000	-20.156483	-10.073088	-26.309811	2.976038	10.656162	31.128843	-0.151391	10.681461	-12.598014	0.003323	0.372125	1.022471	0.000000	0.000000	0.000000	27.396362	-4.792988	19.441303	-1.029060	-6.452713	18.103758	-0.367343	6.363134	-11.005922	-0.853646	5.892375	-16.472466	4.960820	1.733110	5.773109	1.368460	2.535320	3.410081	-1.499160	1.323820	0.438799	0.795294	4.129889	-12.577599	-3.670550	5.462761	-1.525920	-1.011070	2.615450	1.795570	-0.000000	-0.000000	0.000000	-96.791222	9.786504	-12.155158	9.666735	-16.216591	-1.380417	-0.000000	0.000002	-8.891688	22.824181	20.410170	8.349649	-7.125019	0.000000	0.000000	-5.805297	51.873070	-0.985232	-0.000000	-0.000000	0.000000	81.523262	19.271790	39.267757	-23.473475	34.602501	-7.405425	0.000000	0.000000	-15.293897	-27.503511	17.070820	-8.689682	7.125019	0.000000	0.000000	0.256021	-10.883541	0.203084
